HIERARCHY
ROOT Hips
{
	OFFSET 0.000000 0.000000 0.000000
	CHANNELS 6 Xposition Yposition Zposition Zrotation Yrotation Xrotation 
	JOINT LHipJoint
	{
		OFFSET 0.000000 0.000000 0.000000
		CHANNELS 3 Zrotation Yrotation Xrotation
		JOINT LeftUpLeg
		{
			OFFSET 1.363060 -1.794630 0.839290
			CHANNELS 3 Zrotation Yrotation Xrotation
			JOINT LeftLeg
			{
				OFFSET 2.448110 -6.726130 0.000000
				CHANNELS 3 Zrotation Yrotation Xrotation
				JOINT LeftFoot
				{
					OFFSET 2.562200 -7.039590 0.000000
					CHANNELS 3 Zrotation Yrotation Xrotation
					JOINT LeftToeBase
					{
						OFFSET 0.157640 -0.433110 2.322550
						CHANNELS 3 Zrotation Yrotation Xrotation
						End Site
						{
							OFFSET 0.000000 0.000000 0.000000
						}
					}
				}
			}
		}
	}
	JOINT RHipJoint
	{
		OFFSET 0.000000 0.000000 0.000000
		CHANNELS 3 Zrotation Yrotation Xrotation
		JOINT RightUpLeg
		{
			OFFSET -1.305520 -1.794630 0.839290
			CHANNELS 3 Zrotation Yrotation Xrotation
			JOINT RightLeg
			{
				OFFSET -2.542530 -6.985550 0.000000
				CHANNELS 3 Zrotation Yrotation Xrotation
				JOINT RightFoot
				{
					OFFSET -2.568260 -7.056230 0.000000
					CHANNELS 3 Zrotation Yrotation Xrotation
					JOINT RightToeBase
					{
						OFFSET -0.164730 -0.452590 2.363150
						CHANNELS 3 Zrotation Yrotation Xrotation
						End Site
						{
							OFFSET 0.000000 0.000000 0.000000
						}
					}
				}
			}
		}
	}
}
MOTION
Frames: 19
Frame Time: 0.008333
-8.178953 17.092790 0.574469 -167.302276 87.248011 -163.729789 -11.975711 5.728378 1.063522 1.621704 9.312090 9.358162 0.240362 2.043456 27.979318 1.824512 -1.677594 35.266875 -2.008699 0.000000 -67.711500 8.872042 -0.496569 1.722796 8.392930 -6.195805 -24.141301 2.220437 0.419413 11.210581 -2.181354 -10.515672 -3.793492 -1.594300 -0.000000 -32.791100
-7.936629 17.087737 0.574685 -163.128614 87.492717 -159.833626 -12.178379 5.713598 1.076536 2.104858 9.968761 8.474683 0.316538 2.051997 30.133125 1.989394 -0.349163 35.845673 -1.221800 -0.000000 -61.298200 8.793518 -0.634223 1.444012 8.804553 -7.400284 -24.220381 2.252376 0.184411 13.268459 -2.010851 -9.717655 -3.769258 -1.457700 0.000001 -33.124800
-7.698307 17.081751 0.573861 -159.062565 87.760732 -156.040569 -12.371256 5.676318 1.048883 2.468906 10.679815 7.520331 0.389155 2.077557 32.354264 2.142509 1.591332 35.683895 -0.015300 0.000000 -55.039400 8.713269 -0.767340 1.178309 9.110539 -8.601091 -24.236151 2.276431 -0.025786 15.156497 -1.841555 -8.886969 -3.841385 -1.301700 0.000000 -33.190000
-7.463926 17.075208 0.572400 -155.111774 88.055219 -152.350916 -12.547372 5.616062 0.980593 2.692649 11.419774 6.503174 0.462059 2.123266 34.611707 2.283621 4.026517 34.761900 1.484200 0.000000 -49.344300 8.635244 -0.894431 0.939035 9.293637 -9.725067 -24.161121 2.293324 -0.207841 16.837760 -1.679658 -8.050228 -4.011229 -1.135600 -0.000000 -33.020300
-7.233129 17.068579 0.570678 -151.214946 88.378610 -148.695859 -12.702120 5.533470 0.875057 2.760628 12.162243 5.431605 0.536327 2.188571 36.866688 2.413380 6.782206 33.098738 3.093400 0.000000 -44.496600 8.562460 -1.014943 0.736776 9.345945 -10.708544 -23.969740 2.304214 -0.359678 18.280170 -1.530694 -7.236790 -4.269894 -0.969800 0.000000 -32.672300
-7.005464 17.062217 0.569161 -147.424847 88.732620 -145.120904 -12.827291 5.433344 0.738945 2.658267 12.894148 4.295543 0.608983 2.271613 39.098098 2.529890 9.651416 30.700336 4.599900 -0.000000 -40.202900 8.503946 -1.126649 0.575803 9.262870 -11.533984 -23.675356 2.310596 -0.484744 19.505198 -1.394442 -6.445684 -4.614823 -0.807899 0.000000 -32.182400
-6.780366 17.056827 0.567823 -143.484564 89.112802 -141.363777 -12.925672 5.315516 0.580587 2.386296 13.589285 3.105360 0.676726 2.364456 41.251835 2.637018 12.459067 27.667048 5.826900 -0.000000 -36.616300 8.456756 -1.232633 0.462091 9.054703 -12.157254 -23.254951 2.313006 -0.581908 20.479019 -1.276943 -5.720153 -5.017253 -0.661000 0.000000 -31.646200
-6.557212 17.052889 0.566763 -139.152778 89.509885 -137.177674 -12.997656 5.180662 0.409984 1.948971 14.233064 1.855419 0.733915 2.458237 43.296074 2.736431 15.053422 24.081544 6.633000 -0.000001 -33.399301 8.421508 -1.336061 0.396691 8.734476 -12.576322 -22.721457 2.312124 -0.654952 21.213307 -1.179944 -5.079387 -5.455745 -0.533100 -0.000000 -31.139900
-6.335477 17.050936 0.565857 -133.916536 89.906298 -132.046295 -13.045862 5.024335 0.238189 1.355978 14.803005 0.547294 0.775932 2.540627 45.194958 2.832293 17.338727 20.077558 6.947900 0.000000 -30.421900 8.395976 -1.443803 0.378405 8.320852 -12.802624 -22.085665 2.309097 -0.708565 21.713981 -1.105550 -4.546930 -5.902947 -0.426900 0.000000 -30.751500
-6.114753 17.051444 0.564891 53.329378 89.731572 55.135519 -13.070031 4.833714 0.074649 0.627618 15.275126 -0.814727 0.802238 2.596284 46.925360 2.927715 19.260283 15.797382 6.762100 -0.000000 -27.513200 8.379571 -1.568832 0.405495 7.837078 -12.865403 -21.362347 2.307082 -0.750659 21.988488 -1.055711 -4.144669 -6.332077 -0.342900 0.000000 -30.562400
-5.894736 17.054760 0.563557 65.382517 89.476188 67.163269 -13.048254 4.578527 -0.075047 -0.196757 15.617758 -2.221621 0.821871 2.602453 48.480123 3.024707 20.800804 11.395713 6.124900 -0.000000 -24.538000 8.390273 -1.735790 0.479525 7.319237 -12.810861 -20.565951 2.314284 -0.796028 22.037624 -1.033285 -3.896737 -6.718255 -0.280400 -0.000000 -30.639901
-5.675314 17.061089 0.561480 89.770860 89.499884 91.561705 -12.841701 4.225447 -0.215437 -1.021074 15.794985 -3.660917 0.848914 2.535815 49.874400 3.124811 21.973664 7.043318 5.139000 -0.000000 -21.589200 8.558556 -1.962311 0.609043 6.858737 -12.690711 -19.706745 2.342212 -0.866082 21.847334 -1.041765 -3.831114 -7.037266 -0.237700 0.000000 -31.028199
-5.456537 17.070483 0.558269 -46.615218 89.833763 -44.772644 -12.138463 4.046498 -0.356563 -1.724377 15.952439 -5.180020 0.772430 2.540108 51.075419 3.229999 22.821251 2.892160 3.928199 -0.000000 -18.669099 9.217248 -2.012686 0.740203 6.613295 -12.439702 -18.754965 2.323277 -0.884290 21.461436 -1.061281 -3.897496 -7.235500 -0.212700 0.000000 -31.731399
-5.238601 17.082724 0.553643 -12.179886 88.573271 -10.248958 -11.713652 4.360560 -0.433548 -2.661574 16.336281 -6.843602 0.472684 2.801010 51.928456 3.336161 23.434796 -0.908170 2.623000 0.000000 -15.827500 9.656933 -1.689042 0.738670 6.227903 -11.990346 -17.683588 2.163819 -0.700561 21.061812 -1.053420 -3.924427 -7.290464 -0.204000 -0.000001 -32.722201
-5.021762 17.097473 0.547340 4.023001 87.728182 6.032612 -11.794688 4.479445 -0.461031 -3.788387 16.566650 -8.503707 0.241557 2.954345 52.599514 3.431205 23.824809 -4.282057 1.342000 0.000000 -13.176400 9.590237 -1.555353 0.731941 5.636520 -11.659544 -16.582892 2.047735 -0.546456 20.513784 -1.066774 -4.055774 -7.276697 -0.210500 -0.000000 -33.952200
-4.806360 17.114133 0.539239 12.269729 87.251050 14.347262 -11.883510 4.418856 -0.479973 -4.874754 16.638313 -10.145356 0.079796 3.004823 53.155636 3.514631 24.028767 -7.181993 0.174100 -0.000000 -10.793100 9.493289 -1.562943 0.744582 5.068644 -11.466941 -15.441378 1.976536 -0.444715 19.773546 -1.101447 -4.307919 -7.180505 -0.231800 0.000000 -35.360100
-4.592676 17.132022 0.529374 17.268396 86.940685 19.401783 -11.920760 4.298104 -0.495478 -5.903426 16.636301 -11.780612 -0.055410 3.018720 53.589266 3.586234 24.098039 -9.614962 -0.838200 -0.000000 -8.564700 9.435847 -1.611491 0.748867 4.545927 -11.387453 -14.241006 1.921533 -0.358523 18.879368 -1.143155 -4.622554 -6.993642 -0.267099 0.000000 -36.883500
-4.380930 17.150307 0.517829 20.821004 86.722383 22.993442 -11.925041 4.154022 -0.510023 -6.886134 16.596826 -13.404218 -0.175071 3.018165 53.898815 3.646693 24.080111 -11.599375 -1.674799 0.000000 -6.543700 9.405105 -1.672239 0.732014 4.052662 -11.414638 -12.977843 1.874062 -0.276011 17.858784 -1.184318 -4.960652 -6.721068 -0.315800 -0.000000 -38.471100
-4.171205 17.168181 0.504830 23.788278 86.564956 25.980348 -11.910823 3.997243 -0.526440 -7.837602 16.536505 -15.006276 -0.282923 3.009723 54.084236 3.697724 24.009643 -13.192749 -2.346400 -0.000000 -4.649300 9.388814 -1.737126 0.690171 3.570810 -11.542038 -11.657758 1.831455 -0.195254 16.739051 -1.220143 -5.292866 -6.373375 -0.376100 -0.000000 -40.081300
